<svg width="35" height="36" viewBox="0 0 35 36" fill="none" xmlns="http://www.w3.org/2000/svg">
<path d="M27.7083 4.875H7.29167C5.6875 4.875 4.375 6.1875 4.375 7.79167V28.2083C4.375 29.8125 5.6875 31.125 7.29167 31.125H27.7083C29.3125 31.125 30.625 29.8125 30.625 28.2083V7.79167C30.625 6.1875 29.3125 4.875 27.7083 4.875ZM13.8542 17.2708C13.8542 18.4375 12.8333 19.4583 11.6667 19.4583H10.2083V22.375H8.02083V13.625H11.6667C12.8333 13.625 13.8542 14.6458 13.8542 15.8125V17.2708ZM21.1458 20.1875C21.1458 21.3542 20.125 22.375 18.9583 22.375H15.3125V13.625H18.9583C20.125 13.625 21.1458 14.6458 21.1458 15.8125V20.1875ZM26.9792 15.8125H24.7917V17.2708H26.9792V19.4583H24.7917V22.375H22.6042V13.625H26.9792V15.8125ZM17.5 15.8125H18.9583V20.1875H17.5V15.8125ZM10.2083 15.8125H11.6667V17.2708H10.2083V15.8125Z" fill="#40A3FF"/>
</svg>
